<?xml version="1.0" encoding="utf-8"?>
<!-- Generator: Adobe Illustrator 22.1.0, SVG Export Plug-In . SVG Version: 6.00 Build 0)  -->
<svg version="1.1" id="Layer_1" xmlns="http://www.w3.org/2000/svg" xmlns:xlink="http://www.w3.org/1999/xlink" x="0px" y="0px"
	 viewBox="0 0 1024 768" style="enable-background:new 0 0 1024 768;" xml:space="preserve">
<style type="text/css">
	.st0{fill:#E6D72B;}
	.st1{fill:#E92639;}
	.st2{fill:#FFFFFF;}
	.st3{fill:#231F20;}
	.st4{fill:none;stroke:#E92639;stroke-miterlimit:10;}
</style>
<g id="Layer_1_1_">
	<g id="Layer_3">
	</g>
	<g>
		<g>
			<path class="st0" d="M215.3,271.9l168.1,19.7l-11.3-43.2c-77.5-109.7-138.9-27.5-138.9-27.5L215.3,271.9z"/>
			<g>
				<path class="st1" d="M427.2,269.9c25.1,9.7,21.5,29.4,21.5,29.4s-35.2-9.7-37.3-16.5s-14.3,0-14.3,0
					c-73.1,55.9-130.5,46.2-163.3,28c14.2-8.4,23.6-23,23.6-39.7c0-17.8-10.8-33.4-26.6-41.3c7.2-6,14.6-10.5,22-13.8
					c66.9-29.6,140,41,140,41c11.4,9.8,20.8,2.2,20.8,2.2s38.7-28,35.3-10.8S427.2,269.9,427.2,269.9z"/>
				<path class="st0" d="M233.9,310.9c-17.9-9.9-28.5-22.3-30.4-28c-5.4-16.1,0-20.8,0-20.8c8.6-13.7,17.8-24.2,27.3-32.2
					c15.8,7.9,26.6,23.4,26.6,41.3C257.4,287.9,248,302.5,233.9,310.9z"/>
			</g>
			<circle class="st2" cx="224.4" cy="257.8" r="6.4"/>
			<circle class="st3" cx="224.4" cy="257.8" r="4"/>
			<circle class="st2" cx="227.4" cy="257.8" r="3.4"/>
			<g>
				<path class="st4" d="M218,270.3c-0.9,3.1-6.1,5.4-12.4,5.4c-1.5,0-2.9-0.2-4.2-0.4"/>
			</g>
		</g>
		<g>
			<path class="st0" d="M41.8,386l168.1,19.7l-11.3-43.2C121.1,252.8,59.7,335,59.7,335L41.8,386z"/>
			<g>
				<path class="st1" d="M253.7,384c25.1,9.7,21.5,29.4,21.5,29.4s-35.1-9.7-37.3-16.5c-2.1-6.8-14.3,0-14.3,0
					c-73.1,55.9-130.5,46.2-163.3,28c14.2-8.4,23.6-23,23.6-39.7c0-17.8-10.8-33.4-26.6-41.3c7.2-6,14.6-10.5,22-13.8
					c66.9-29.6,140,41,140,41c11.4,9.8,20.8,2.2,20.8,2.2s38.7-28,35.3-10.8C271.9,379.7,253.7,384,253.7,384z"/>
				<path class="st0" d="M60.3,424.9c-17.9-9.9-28.5-22.3-30.4-28c-5.4-16.1,0-20.8,0-20.8c8.6-13.7,17.8-24.2,27.3-32.2
					c15.8,7.9,26.6,23.4,26.6,41.3C83.8,401.9,74.4,416.6,60.3,424.9z"/>
			</g>
			<circle class="st2" cx="50.8" cy="371.9" r="6.4"/>
			<circle class="st3" cx="50.8" cy="371.9" r="4"/>
			<circle class="st2" cx="53.8" cy="371.9" r="3.4"/>
			<g>
				<path class="st4" d="M44.5,384.4c-0.9,3.1-6.1,5.4-12.4,5.4c-1.5,0-2.9-0.2-4.2-0.4"/>
			</g>
		</g>
		<g>
			<path class="st0" d="M189.5,513l168.2,19.7l-11.3-43.2C268.9,379.8,207.5,462,207.5,462L189.5,513z"/>
			<g>
				<path class="st1" d="M401.5,511.1c25.1,9.7,21.5,29.4,21.5,29.4s-35.1-9.7-37.3-16.5c-2.1-6.8-14.3,0-14.3,0
					c-73.1,55.9-130.5,46.2-163.3,28c14.2-8.4,23.6-23,23.6-39.7c0-17.8-10.8-33.4-26.6-41.3c7.2-6,14.6-10.5,22-13.8
					c66.9-29.6,140,41,140,41c11.4,9.8,20.8,2.2,20.8,2.2s38.7-28,35.3-10.8C419.8,506.8,401.5,511.1,401.5,511.1z"/>
				<path class="st0" d="M208.1,552c-17.9-9.9-28.5-22.3-30.4-28c-5.4-16.1,0-20.8,0-20.8c8.6-13.7,17.8-24.2,27.3-32.2
					c15.8,7.9,26.6,23.4,26.6,41.3C231.6,529,222.2,543.7,208.1,552z"/>
			</g>
			<circle class="st2" cx="198.7" cy="499" r="6.4"/>
			<circle class="st3" cx="198.7" cy="499" r="4"/>
			<circle class="st2" cx="201.6" cy="499" r="3.4"/>
			<g>
				<path class="st4" d="M192.3,511.5c-0.9,3.1-6.1,5.4-12.4,5.4c-1.5,0-2.9-0.2-4.2-0.4"/>
			</g>
		</g>
		<g>
			<path class="st0" d="M339.4,403.4l168.1,19.7l-11.3-43.2c-77.5-109.7-138.9-27.5-138.9-27.5L339.4,403.4z"/>
			<g>
				<path class="st1" d="M551.2,401.5c25.1,9.7,21.5,29.4,21.5,29.4s-35.1-9.7-37.3-16.5c-2.1-6.8-14.3,0-14.3,0
					c-73.1,55.9-130.5,46.2-163.3,28c14.2-8.4,23.6-23,23.6-39.7c0-17.8-10.8-33.4-26.6-41.3c7.2-6,14.6-10.5,22-13.8
					c66.9-29.6,140,41,140,41c11.4,9.8,20.8,2.2,20.8,2.2s38.7-28,35.3-10.8C569.5,397.2,551.3,401.5,551.2,401.5z"/>
				<path class="st0" d="M357.9,442.4c-17.9-9.9-28.5-22.3-30.4-28c-5.4-16.1,0-20.8,0-20.8c8.6-13.7,17.8-24.2,27.3-32.2
					c15.8,7.9,26.6,23.4,26.6,41.3C381.4,419.4,372,434.1,357.9,442.4z"/>
			</g>
			<circle class="st2" cx="348.4" cy="389.4" r="6.4"/>
			<circle class="st3" cx="348.4" cy="389.4" r="4"/>
			<circle class="st2" cx="351.4" cy="389.4" r="3.4"/>
			<g>
				<path class="st4" d="M342.1,401.9c-0.9,3.1-6.1,5.4-12.4,5.4c-1.5,0-2.9-0.2-4.2-0.4"/>
			</g>
		</g>
		<g>
			<path class="st0" d="M452.6,503.1L558.7,514l-7.2-23.8c-48.9-60.5-87.6-15.2-87.6-15.2L452.6,503.1z"/>
			<g>
				<path class="st1" d="M586.2,502c15.9,5.3,13.6,16.2,13.6,16.2s-22.2-5.3-23.5-9.1c-1.3-3.8-9,0-9,0
					c-46.1,30.8-82.3,25.4-103,15.4c9-4.5,14.9-12.6,14.9-21.8c0-9.9-6.8-18.4-16.8-22.8c4.6-3.3,9.2-5.8,13.9-7.6
					c42.2-16.3,88.3,22.6,88.3,22.6c7.2,5.4,13.1,1.2,13.1,1.2s24.5-15.4,22.3-5.9C597.9,499.6,586.3,502,586.2,502z"/>
				<path class="st0" d="M464.4,524.4c-11.3-5.4-18-12.3-19.2-15.4c-3.4-8.8,0-11.4,0-11.4c5.4-7.5,11.2-13.3,17.2-17.7
					c10,4.4,16.8,13,16.8,22.8C479.2,511.9,473.2,519.9,464.4,524.4z"/>
			</g>
			<ellipse class="st2" cx="458.4" cy="495.3" rx="4" ry="3.5"/>
			<ellipse class="st3" cx="458.4" cy="495.3" rx="2.5" ry="2.2"/>
			<ellipse class="st2" cx="460.2" cy="495.3" rx="2.2" ry="1.9"/>
			<g>
				<path class="st4" d="M454.4,502.3c-0.6,1.6-3.9,2.9-7.9,2.9c-0.9,0-1.8-0.1-2.6-0.2"/>
			</g>
		</g>
		<g>
			<path class="st0" d="M516.5,305.6l106.1,10.9l-7.2-23.8c-48.9-60.5-87.6-15.2-87.6-15.2L516.5,305.6z"/>
			<g>
				<path class="st1" d="M650,304.4c15.9,5.3,13.6,16.2,13.6,16.2s-22.2-5.3-23.5-9.1s-9,0-9,0c-46.1,30.8-82.3,25.4-103,15.4
					c9-4.5,14.9-12.6,14.9-21.8c0-9.9-6.8-18.4-16.8-22.8c4.6-3.3,9.2-5.8,13.9-7.6c42.2-16.3,88.3,22.6,88.3,22.6
					c7.2,5.4,13.1,1.2,13.1,1.2s24.5-15.4,22.3-5.9C661.7,302.1,650.1,304.5,650,304.4z"/>
				<path class="st0" d="M528.2,326.9c-11.3-5.4-18-12.3-19.2-15.4c-3.4-8.8,0-11.4,0-11.4c5.4-7.5,11.2-13.3,17.2-17.7
					c10,4.4,16.8,13,16.8,22.8C543,314.4,537.1,322.4,528.2,326.9z"/>
			</g>
			<ellipse class="st2" cx="522.2" cy="297.8" rx="4" ry="3.5"/>
			<ellipse class="st3" cx="522.2" cy="297.8" rx="2.5" ry="2.2"/>
			<ellipse class="st2" cx="524.1" cy="297.8" rx="2.2" ry="1.9"/>
			<g>
				<path class="st4" d="M518.2,304.8c-0.6,1.6-3.9,2.9-7.9,2.9c-0.9,0-1.8-0.1-2.6-0.2"/>
			</g>
		</g>
		<g>
			<path class="st0" d="M609.8,392l106.1,10.9l-7.2-23.8c-48.9-60.5-87.6-15.2-87.6-15.2L609.8,392z"/>
			<g>
				<path class="st1" d="M743.4,390.8C759.3,396.1,757,407,757,407s-22.2-5.3-23.5-9.1s-9,0-9,0c-46.1,30.8-82.3,25.4-103,15.4
					c9-4.5,14.9-12.6,14.9-21.8c0-9.9-6.8-18.4-16.8-22.8c4.6-3.3,9.2-5.8,13.9-7.6c42.2-16.3,88.3,22.6,88.3,22.6
					c7.2,5.4,13.1,1.2,13.1,1.2s24.5-15.4,22.3-5.9C755,388.5,743.5,390.9,743.4,390.8z"/>
				<path class="st0" d="M621.5,413.2c-11.3-5.4-18-12.3-19.2-15.4c-3.4-8.8,0-11.4,0-11.4c5.4-7.5,11.2-13.3,17.2-17.7
					c10,4.4,16.8,13,16.8,22.8C636.3,400.7,630.4,408.8,621.5,413.2z"/>
			</g>
			<ellipse class="st2" cx="615.5" cy="384.2" rx="4" ry="3.5"/>
			<ellipse class="st3" cx="615.5" cy="384.2" rx="2.5" ry="2.2"/>
			<ellipse class="st2" cx="617.4" cy="384.2" rx="2.2" ry="1.9"/>
			<g>
				<path class="st4" d="M611.5,391.1c-0.6,1.6-3.9,2.9-7.9,2.9c-0.9,0-1.8-0.1-2.6-0.2"/>
			</g>
		</g>
		<g>
			<path class="st0" d="M619.2,478.5l106.1,10.9l-7.2-23.8c-48.9-60.5-87.6-15.2-87.6-15.2L619.2,478.5z"/>
			<g>
				<path class="st1" d="M752.7,477.4c15.9,5.3,13.6,16.2,13.6,16.2s-22.1-5.3-23.5-9.1c-1.3-3.8-9,0-9,0
					c-46.1,30.8-82.3,25.4-103,15.4c9-4.5,14.9-12.6,14.9-21.8c0-9.9-6.8-18.4-16.8-22.8c4.6-3.3,9.2-5.8,13.9-7.6
					c42.2-16.3,88.3,22.6,88.3,22.6c7.2,5.4,13.1,1.2,13.1,1.2s24.5-15.4,22.3-5.9C764.4,475.1,752.8,477.4,752.7,477.4z"/>
				<path class="st0" d="M630.9,499.8c-11.3-5.4-18-12.3-19.2-15.4c-3.4-8.8,0-11.4,0-11.4c5.4-7.5,11.2-13.3,17.2-17.7
					c10,4.4,16.8,13,16.8,22.8C645.7,487.3,639.8,495.4,630.9,499.8z"/>
			</g>
			<ellipse class="st2" cx="624.9" cy="470.8" rx="4" ry="3.5"/>
			<ellipse class="st3" cx="624.9" cy="470.8" rx="2.5" ry="2.2"/>
			<ellipse class="st2" cx="626.8" cy="470.8" rx="2.2" ry="1.9"/>
			<g>
				<path class="st4" d="M620.9,477.7c-0.6,1.6-3.9,2.9-7.9,2.9c-0.9,0-1.8-0.1-2.6-0.2"/>
			</g>
		</g>
		<g>
			<path class="st0" d="M80.4,486.4l51.2,5.5l-3.5-12c-23.6-30.4-42.3-7.6-42.3-7.6L80.4,486.4z"/>
			<g>
				<path class="st1" d="M144.9,485.8c7.6,2.6,6.5,8.1,6.5,8.1s-10.7-2.7-11.4-4.6s-4.4,0-4.4,0c-22.3,15.5-39.7,12.8-49.7,7.8
					c4.3-2.3,7.2-6.4,7.2-11c0-4.9-3.3-9.2-8.1-11.4c2.2-1.6,4.4-2.9,6.7-3.8c20.3-8.1,42.6,11.4,42.6,11.4c3.4,2.7,6.3,0.6,6.3,0.6
					s11.8-7.8,10.8-3C150.4,484.7,144.8,485.9,144.9,485.8z"/>
				<path class="st0" d="M85.9,497.3c-5.4-2.8-8.6-6.2-9.2-7.8c-1.6-4.5,0-5.8,0-5.8c2.6-3.8,5.4-6.7,8.3-8.9
					c4.8,2.2,8.1,6.5,8.1,11.4C93.1,490.8,90.3,494.9,85.9,497.3z"/>
			</g>
			<ellipse class="st2" cx="83.1" cy="482.5" rx="1.9" ry="1.8"/>
			<ellipse class="st3" cx="83.1" cy="482.5" rx="1.2" ry="1.1"/>
			<ellipse class="st2" cx="84" cy="482.5" rx="1" ry="0.9"/>
			<g>
				<path class="st4" d="M81.2,486c-0.3,0.9-1.9,1.5-3.8,1.5c-0.5,0-0.9,0-1.3-0.1"/>
			</g>
		</g>
		<g>
			<path class="st0" d="M771.1,442.9l51.2,5.5l-3.5-12c-23.6-30.4-42.3-7.6-42.3-7.6L771.1,442.9z"/>
			<g>
				<path class="st1" d="M835.6,442.3c7.6,2.6,6.5,8.1,6.5,8.1s-10.7-2.7-11.4-4.6c-0.7-1.9-4.4,0-4.4,0
					c-22.3,15.5-39.7,12.8-49.7,7.8c4.3-2.3,7.2-6.4,7.2-11c0-4.9-3.3-9.2-8.1-11.4c2.2-1.6,4.4-2.9,6.7-3.8
					c20.3-8.1,42.6,11.4,42.6,11.4c3.4,2.7,6.3,0.6,6.3,0.6s11.8-7.8,10.8-3C841.1,441.2,835.5,442.4,835.6,442.3z"/>
				<path class="st0" d="M776.6,453.8c-5.4-2.8-8.6-6.2-9.2-7.8c-1.6-4.5,0-5.8,0-5.8c2.6-3.8,5.4-6.7,8.3-8.9
					c4.8,2.2,8.1,6.5,8.1,11.4C783.8,447.4,780.9,451.4,776.6,453.8z"/>
			</g>
			<ellipse class="st2" cx="773.8" cy="439" rx="1.9" ry="1.8"/>
			<ellipse class="st3" cx="773.8" cy="439" rx="1.2" ry="1.1"/>
			<ellipse class="st2" cx="774.7" cy="439" rx="1" ry="0.9"/>
			<g>
				<path class="st4" d="M771.9,442.5c-0.3,0.9-1.9,1.5-3.8,1.5c-0.5,0-0.9,0-1.3-0.1"/>
			</g>
		</g>
		<g>
			<path class="st0" d="M691.9,531.7l51.2,5.5l-3.5-12c-23.6-30.4-42.3-7.6-42.3-7.6L691.9,531.7z"/>
			<g>
				<path class="st1" d="M756.4,531.1c7.6,2.6,6.5,8.1,6.5,8.1s-10.7-2.7-11.4-4.6c-0.7-1.9-4.4,0-4.4,0
					c-22.3,15.5-39.7,12.8-49.7,7.8c4.3-2.3,7.2-6.4,7.2-11c0-4.9-3.3-9.2-8.1-11.4c2.2-1.6,4.4-2.9,6.7-3.8
					c20.3-8.1,42.6,11.4,42.6,11.4c3.4,2.7,6.3,0.6,6.3,0.6s11.8-7.8,10.8-3S756.3,531.1,756.4,531.1z"/>
				<path class="st0" d="M697.4,542.6c-5.4-2.8-8.6-6.2-9.2-7.8c-1.6-4.5,0-5.8,0-5.8c2.6-3.8,5.4-6.7,8.3-8.9
					c4.8,2.2,8.1,6.5,8.1,11.4C704.6,536.1,701.7,540.2,697.4,542.6z"/>
			</g>
			<ellipse class="st2" cx="694.6" cy="527.8" rx="1.9" ry="1.8"/>
			<ellipse class="st3" cx="694.6" cy="527.8" rx="1.2" ry="1.1"/>
			<ellipse class="st2" cx="695.5" cy="527.8" rx="1" ry="0.9"/>
			<g>
				<path class="st4" d="M692.7,531.2c-0.3,0.9-1.9,1.5-3.8,1.5c-0.5,0-0.9,0-1.3-0.1"/>
			</g>
		</g>
		<g>
			<path class="st0" d="M561.7,560.8l51.2,5.5l-3.5-12c-23.6-30.4-42.3-7.6-42.3-7.6L561.7,560.8z"/>
			<g>
				<path class="st1" d="M626.3,560.2c7.6,2.6,6.5,8.1,6.5,8.1s-10.7-2.7-11.4-4.6s-4.4,0-4.4,0c-22.3,15.5-39.7,12.8-49.7,7.8
					c4.3-2.3,7.2-6.4,7.2-11c0-4.9-3.3-9.2-8.1-11.4c2.2-1.6,4.4-2.9,6.7-3.8c20.3-8.1,42.6,11.4,42.6,11.4c3.4,2.7,6.3,0.6,6.3,0.6
					s11.8-7.8,10.8-3C631.7,559,626.2,560.2,626.3,560.2z"/>
				<path class="st0" d="M567.3,571.7c-5.4-2.8-8.6-6.2-9.2-7.8c-1.6-4.5,0-5.8,0-5.8c2.6-3.8,5.4-6.7,8.3-8.9
					c4.8,2.2,8.1,6.5,8.1,11.4C574.5,565.2,571.6,569.3,567.3,571.7z"/>
			</g>
			<ellipse class="st2" cx="564.4" cy="556.9" rx="1.9" ry="1.8"/>
			<ellipse class="st3" cx="564.4" cy="556.9" rx="1.2" ry="1.1"/>
			<ellipse class="st2" cx="565.3" cy="556.9" rx="1" ry="0.9"/>
			<g>
				<path class="st4" d="M562.5,560.3c-0.3,0.9-1.9,1.5-3.8,1.5c-0.5,0-0.9,0-1.3-0.1"/>
			</g>
		</g>
		<g>
			<path class="st0" d="M463.7,233.6l51.2,5.5l-3.5-12c-23.6-30.4-42.3-7.6-42.3-7.6L463.7,233.6z"/>
			<g>
				<path class="st1" d="M528.3,233c7.6,2.6,6.5,8.1,6.5,8.1s-10.7-2.7-11.4-4.6c-0.7-1.9-4.4,0-4.4,0
					c-22.3,15.5-39.7,12.8-49.7,7.8c4.3-2.3,7.2-6.4,7.2-11c0-4.9-3.3-9.2-8.1-11.4c2.2-1.6,4.4-2.9,6.7-3.8
					c20.3-8.1,42.6,11.4,42.6,11.4c3.4,2.7,6.3,0.6,6.3,0.6s11.8-7.8,10.8-3C533.7,231.9,528.2,233.1,528.3,233z"/>
				<path class="st0" d="M469.3,244.5c-5.4-2.8-8.6-6.2-9.2-7.8c-1.6-4.5,0-5.8,0-5.8c2.6-3.8,5.4-6.7,8.3-8.9
					c4.8,2.2,8.1,6.5,8.1,11.4C476.5,238,473.6,242.1,469.3,244.5z"/>
			</g>
			<ellipse class="st2" cx="466.4" cy="229.7" rx="1.9" ry="1.8"/>
			<ellipse class="st3" cx="466.4" cy="229.7" rx="1.2" ry="1.1"/>
			<ellipse class="st2" cx="467.3" cy="229.7" rx="1" ry="0.9"/>
			<g>
				<path class="st4" d="M464.5,233.2c-0.3,0.9-1.9,1.5-3.8,1.5c-0.5,0-0.9,0-1.3-0.1"/>
			</g>
		</g>
		<g>
			<path class="st0" d="M813.3,393.5l51.2,5.5l-3.5-12c-23.6-30.4-42.3-7.6-42.3-7.6L813.3,393.5z"/>
			<g>
				<path class="st1" d="M877.9,392.9c7.6,2.6,6.5,8.1,6.5,8.1s-10.7-2.7-11.4-4.6s-4.4,0-4.4,0c-22.3,15.5-39.7,12.8-49.7,7.8
					c4.3-2.3,7.2-6.4,7.2-11c0-4.9-3.3-9.2-8.1-11.4c2.2-1.6,4.4-2.9,6.7-3.8c20.3-8.1,42.6,11.4,42.6,11.4c3.4,2.7,6.3,0.6,6.3,0.6
					s11.8-7.8,10.8-3S877.8,393,877.9,392.9z"/>
				<path class="st0" d="M818.9,404.4c-5.4-2.8-8.6-6.2-9.2-7.8c-1.6-4.5,0-5.8,0-5.8c2.6-3.8,5.4-6.7,8.3-8.9
					c4.8,2.2,8.1,6.5,8.1,11.4C826.1,398,823.2,402,818.9,404.4z"/>
			</g>
			<ellipse class="st2" cx="816.1" cy="389.7" rx="1.9" ry="1.8"/>
			<ellipse class="st3" cx="816.1" cy="389.7" rx="1.2" ry="1.1"/>
			<ellipse class="st2" cx="817" cy="389.6" rx="1" ry="0.9"/>
			<g>
				<path class="st4" d="M814.2,393.1c-0.3,0.9-1.9,1.5-3.8,1.5c-0.5,0-0.9,0-1.3-0.1"/>
			</g>
		</g>
		<g>
			<path class="st0" d="M750.4,344.1l51.2,5.5l-3.5-12c-23.6-30.4-42.3-7.6-42.3-7.6L750.4,344.1z"/>
			<g>
				<path class="st1" d="M815,343.5c7.6,2.6,6.5,8.1,6.5,8.1s-10.7-2.7-11.4-4.6c-0.7-1.9-4.4,0-4.4,0
					c-22.3,15.5-39.7,12.8-49.7,7.8c4.3-2.3,7.2-6.4,7.2-11c0-4.9-3.3-9.2-8.1-11.4c2.2-1.6,4.4-2.9,6.7-3.8
					c20.3-8.1,42.6,11.4,42.6,11.4c3.4,2.7,6.3,0.6,6.3,0.6s11.8-7.8,10.8-3S814.9,343.5,815,343.5z"/>
				<path class="st0" d="M756,355c-5.4-2.8-8.6-6.2-9.2-7.8c-1.6-4.5,0-5.8,0-5.8c2.6-3.8,5.4-6.7,8.3-8.9c4.8,2.2,8.1,6.5,8.1,11.4
					C763.2,348.5,760.3,352.6,756,355z"/>
			</g>
			<ellipse class="st2" cx="753.2" cy="340.2" rx="1.9" ry="1.8"/>
			<ellipse class="st3" cx="753.2" cy="340.2" rx="1.2" ry="1.1"/>
			<ellipse class="st2" cx="754.1" cy="340.2" rx="1" ry="0.9"/>
			<g>
				<path class="st4" d="M751.3,343.6c-0.3,0.9-1.9,1.5-3.8,1.5c-0.5,0-0.9,0-1.3-0.1"/>
			</g>
		</g>
		<g>
			<path class="st0" d="M684,279.5l51.2,5.5l-3.5-12c-23.6-30.4-42.3-7.6-42.3-7.6L684,279.5z"/>
			<g>
				<path class="st1" d="M748.6,278.9c7.6,2.6,6.5,8.1,6.5,8.1s-10.7-2.7-11.4-4.6c-0.7-1.9-4.4,0-4.4,0
					c-22.3,15.5-39.7,12.8-49.7,7.8c4.3-2.3,7.2-6.4,7.2-11c0-4.9-3.3-9.2-8.1-11.4c2.2-1.6,4.4-2.9,6.7-3.8
					c20.3-8.1,42.6,11.4,42.6,11.4c3.4,2.7,6.3,0.6,6.3,0.6s11.8-7.8,10.8-3C754,277.7,748.5,278.9,748.6,278.9z"/>
				<path class="st0" d="M689.6,290.4c-5.4-2.8-8.6-6.2-9.2-7.8c-1.6-4.5,0-5.8,0-5.8c2.6-3.8,5.4-6.7,8.3-8.9
					c4.8,2.2,8.1,6.5,8.1,11.4C696.8,283.9,693.9,288,689.6,290.4z"/>
			</g>
			<ellipse class="st2" cx="686.7" cy="275.6" rx="1.9" ry="1.8"/>
			<ellipse class="st3" cx="686.7" cy="275.6" rx="1.2" ry="1.1"/>
			<ellipse class="st2" cx="687.6" cy="275.6" rx="1" ry="0.9"/>
			<g>
				<path class="st4" d="M684.8,279c-0.3,0.9-1.9,1.5-3.8,1.5c-0.5,0-0.9,0-1.3-0.1"/>
			</g>
		</g>
		<g>
			<path class="st0" d="M906.5,428.7l51.2,5.5l-3.5-12c-23.6-30.4-42.3-7.6-42.3-7.6L906.5,428.7z"/>
			<g>
				<path class="st1" d="M971.1,428.1c7.6,2.6,6.5,8.1,6.5,8.1s-10.7-2.7-11.4-4.6s-4.4,0-4.4,0c-22.3,15.5-39.7,12.8-49.7,7.8
					c4.3-2.3,7.2-6.4,7.2-11c0-4.9-3.3-9.2-8.1-11.4c2.2-1.6,4.4-2.9,6.7-3.8c20.3-8.1,42.6,11.4,42.6,11.4c3.4,2.7,6.3,0.6,6.3,0.6
					s11.8-7.8,10.8-3C976.5,427,971,428.2,971.1,428.1z"/>
				<path class="st0" d="M912.1,439.6c-5.4-2.8-8.6-6.2-9.2-7.8c-1.6-4.5,0-5.8,0-5.8c2.6-3.8,5.4-6.7,8.3-8.9
					c4.8,2.2,8.1,6.5,8.1,11.4C919.3,433.1,916.4,437.2,912.1,439.6z"/>
			</g>
			<ellipse class="st2" cx="909.2" cy="424.8" rx="1.9" ry="1.8"/>
			<ellipse class="st3" cx="909.2" cy="424.8" rx="1.2" ry="1.1"/>
			<ellipse class="st2" cx="910.1" cy="424.8" rx="1" ry="0.9"/>
			<g>
				<path class="st4" d="M907.3,428.3c-0.3,0.9-1.9,1.5-3.8,1.5c-0.5,0-0.9,0-1.3-0.1"/>
			</g>
		</g>
	</g>
</g>
<g id="Layer_4">
</g>
<g id="Layer_2_1_">
</g>
</svg>
