<?xml version="1.0" encoding="utf-8"?>
<!-- Generator: Adobe Illustrator 22.1.0, SVG Export Plug-In . SVG Version: 6.00 Build 0)  -->
<svg version="1.1" id="Layer_1" xmlns="http://www.w3.org/2000/svg" xmlns:xlink="http://www.w3.org/1999/xlink" x="0px" y="0px"
	 viewBox="0 0 300 300" style="enable-background:new 0 0 300 300;" xml:space="preserve">
<style type="text/css">
	.st0{fill:#FFFFFF;}
	.st1{fill:#20242F;}
	.st2{fill:#E7BC30;}
	.st3{fill:#F2E641;}
	.st4{fill:#E6D72B;}
</style>
<g>
	<circle class="st0" cx="187.3" cy="75.4" r="6.8"/>
	<circle class="st1" cx="187.3" cy="75.4" r="4.9"/>
	<circle class="st0" cx="184.3" cy="76.3" r="4.1"/>
	<path class="st2" d="M126.1,195.5c31.3,2.2,58.8-27.1,58.8-27.1s51.1-49,7.3-107.2s-90.3-20.3-90.3-20.3s-19.7,8.5-8.3,27.6
		s11.4,97.8,11.4,97.8C107.3,196.8,126.1,195.4,126.1,195.5z"/>
	<path class="st3" d="M71.8,94.5c-31.2,22.2,2.3,49.9,2.3,49.9c15.6-25.5,24.7-17.2,24.7-17.2c78.1,103.6,105.1,10,108.8,2.1
		c3.7-7.9,10.1-7.3,10.1-7.3l13.5-0.3c2.9,6.1,6,0,6,0v-6.1c-1.4-7.4-6.1,0-6.1,0s0,0-12.6-0.1c-7.8-0.1-8.1-9.1-8.1-9.1
		C184-45.7,97.2,108.7,97.2,108.7C85.5,117.2,71.7,94.4,71.8,94.5z"/>
	<path class="st4" d="M91.4,55.4"/>
	<g>
		<circle class="st0" cx="187.2" cy="75.5" r="6.8"/>
		<circle class="st1" cx="187.2" cy="75.5" r="4.9"/>
		<ellipse class="st0" cx="185.4" cy="76.5" rx="3" ry="4.1"/>
	</g>
	<path class="st2" d="M146.2,116.6c-27.1,2.6-15.7,11.4-15.7,11.4s5.8,9.1,21.3,16.2s8.6-23,8.6-23L146.2,116.6z"/>
</g>
<g>
	<circle class="st0" cx="59.8" cy="214.9" r="2.8"/>
	<circle class="st1" cx="59.8" cy="214.9" r="2"/>
	<circle class="st0" cx="58.6" cy="215.3" r="1.7"/>
	<path class="st2" d="M34.3,264.8c13.1,0.9,24.5-11.3,24.5-11.3s21.2-20.5,3-44.6s-37.5-8.4-37.5-8.4S16,204,20.8,212
		s4.8,40.7,4.8,40.7C26.5,265.4,34.3,264.9,34.3,264.8z"/>
	<path class="st3" d="M11.7,222.8c-12.9,9.3,1,20.8,1,20.8c6.5-10.6,10.3-7.1,10.3-7.1c32.5,43.1,43.7,4.2,45.3,0.9
		c1.5-3.3,4.2-3,4.2-3l5.6-0.1c1.2,2.6,2.5,0,2.5,0v-2.6c-0.7-3.1-2.6,0-2.6,0s0,0-5.2-0.1c-3.3,0-3.4-3.8-3.4-3.8
		c-11-63.2-47.1,1-47.1,1C17.5,232.3,11.7,222.9,11.7,222.8z"/>
	<path class="st4" d="M19.9,206.6"/>
	<g>
		<circle class="st0" cx="59.8" cy="215" r="2.8"/>
		<circle class="st1" cx="59.8" cy="215" r="2"/>
		<ellipse class="st0" cx="59" cy="215.4" rx="1.3" ry="1.7"/>
	</g>
	<path class="st2" d="M42.6,232.1c-11.2,1.1-6.5,4.8-6.5,4.8s2.5,3.7,8.9,6.7c6.5,2.9,3.6-9.6,3.6-9.6L42.6,232.1z"/>
</g>
</svg>
